<?xml version="1.0" standalone="no"?>
<!DOCTYPE svg PUBLIC "-//W3C//DTD SVG 20010904//EN"
 "http://www.w3.org/TR/2001/REC-SVG-20010904/DTD/svg10.dtd">
<svg version="1.0" xmlns="http://www.w3.org/2000/svg"
 width="128.000000pt" height="128.000000pt" viewBox="0 0 128.000000 128.000000"
 preserveAspectRatio="xMidYMid meet">
<metadata>
Created by potrace 1.11, written by Peter Selinger 2001-2013
</metadata>
<g transform="translate(0.000000,128.000000) scale(0.100000,-0.100000)"
fill="#000000" stroke="none">
<path d="M335 1120 c-54 -13 -79 -27 -126 -69 -67 -58 -92 -122 -93 -236 -1
-112 7 -153 44 -234 79 -169 274 -367 448 -455 33 -17 34 -17 90 15 166 93
335 266 414 423 87 172 72 382 -34 482 -98 93 -234 104 -343 30 -40 -28 -74
-66 -81 -93 -3 -13 -10 -23 -14 -23 -4 0 -10 10 -14 23 -11 45 -97 115 -161
132 -44 11 -96 13 -130 5z"/>
</g>
</svg>
