<svg viewBox="0 0 310 199" fill="none" xmlns="http://www.w3.org/2000/svg">
    <path d="M90.791 128.444C90.791 113.736 78.867 101.814 64.162 101.814C49.454 101.814 37.532 113.736 37.532 128.444C37.532 140.329 45.317 150.389 56.063 153.816C58.617 154.631 61.337 155.074 64.162 155.074C67.77 155.074 71.21 154.352 74.349 153.052C83.999 149.052 90.791 139.544 90.791 128.444ZM64.162 141.464C56.971 141.464 51.142 135.632 51.142 128.443C51.142 121.253 56.97 115.423 64.162 115.423C71.351 115.423 77.181 121.252 77.181 128.443C77.18 135.632 71.351 141.464 64.162 141.464Z" />
    <path d="M294.054 168.716C293.104 168.716 292.178 168.815 291.277 168.984L282.65 160.357L300.694 159.602C305.107 159.417 308.537 155.689 308.353 151.276C308.168 146.861 304.44 143.433 300.027 143.618L116.568 151.287C111.699 147.287 108.649 142.172 106.754 137.553C107.379 134.615 107.715 131.57 107.715 128.445C107.715 108.124 93.796 91.053 74.971 86.246L214.708 90.855C215.09 95.605 218.004 99.505 222.117 100.208C222.667 100.302 223.214 100.324 223.757 100.3C219.007 97.605 217.292 91.558 219.943 86.766C221.707 83.582 225.062 81.607 228.702 81.607C229.753 81.607 230.793 81.795 231.791 82.12C230.476 79.873 228.43 78.272 225.94 77.848C221.621 77.108 217.383 80.142 215.577 84.886L66.181 79.954C67.529 78.721 68.859 77.542 70.157 76.43C75.079 72.197 79.521 68.863 82.701 66.608C84.047 65.653 85.148 64.904 85.982 64.35L89.312 71.047C90.306 73.02 92.712 73.813 94.684 72.819L100.042 70.118C102.014 69.124 102.808 66.719 101.813 64.746L81.36 23.61C80.366 21.638 77.96 20.844 75.987 21.839L70.629 24.539C68.656 25.533 67.863 27.938 68.858 29.911L78.811 49.929C76.106 51.65 62.407 60.598 48.466 74.833C40.777 82.702 32.995 92.197 27.022 103.153C21.062 114.094 16.896 126.599 16.894 140.185C16.89 148.23 18.395 156.611 21.723 165.036L17.777 168.982C16.876 168.814 15.951 168.715 15.001 168.715C6.71698 168.715 0.000976562 175.43 0.000976562 183.715C0.000976562 191.998 6.71698 198.715 15.001 198.715C23.285 198.715 30.001 191.998 30.001 183.715C30.001 181.105 29.332 178.652 28.16 176.514L33.919 170.754L51.191 170.032C55.288 171.308 59.645 171.997 64.163 171.997C69.954 171.997 75.476 170.857 80.53 168.806L265.458 161.075L280.897 176.514C279.725 178.652 279.056 181.105 279.056 183.715C279.056 191.998 285.771 198.715 294.056 198.715C302.339 198.715 309.056 191.998 309.056 183.715C309.054 175.431 302.337 168.716 294.054 168.716ZM64.162 158.96C58.117 158.96 52.488 157.195 47.747 154.163C39.906 149.148 34.515 140.651 33.749 130.85C33.687 130.055 33.646 129.254 33.646 128.444C33.646 119.13 37.825 110.795 44.405 105.197C49.729 100.668 56.623 97.929 64.161 97.929C81.014 97.929 94.676 111.593 94.676 128.444C94.676 138.337 89.964 147.128 82.665 152.704C77.532 156.626 71.121 158.96 64.162 158.96Z" />
    <path d="M281.193 32.272C283.823 20.1304 276.112 8.15554 263.97 5.52545C251.829 2.89537 239.854 10.606 237.224 22.7477C234.594 34.8893 242.304 46.8641 254.446 49.4942C266.588 52.1243 278.562 44.4137 281.193 32.272Z" />
    <path d="M260.665 113.8H260.658H260.655C256.139 113.774 251.301 112.727 244.964 110.402C241.069 108.96 236.81 107.075 232.095 104.714C231.012 107.534 229.82 110.299 228.508 112.968C217.508 109.592 201.591 106.01 183.362 105.965C163.688 105.945 141.027 110.311 120.086 124.38C114.356 128.229 112.828 135.995 116.676 141.726C119.089 145.319 123.041 147.259 127.067 147.26C129.463 147.26 131.885 146.572 134.024 145.136C149.951 134.448 167.233 130.982 183.363 130.965C197.233 130.956 210.052 133.618 219.273 136.307C223.881 137.647 227.59 138.982 230.087 139.961C231.336 140.446 232.283 140.845 232.89 141.108C233.193 141.24 233.411 141.337 233.539 141.395C233.602 141.423 233.643 141.443 233.662 141.451L233.663 141.45C235.597 142.361 237.647 142.73 239.643 142.624C245.541 143.279 251.863 141.364 257.823 133.26C262.677 125.484 266.247 118.796 268.96 112.155C268.576 112.327 268.19 112.49 267.798 112.626C265.639 113.41 263.297 113.8 260.665 113.8Z" />
    <path d="M258.181 93.508C258.066 93.02 257.927 92.485 257.752 91.919C257.224 90.155 256.417 88.059 255.417 85.839C253.444 81.473 251.292 77.929 251.202 77.78C251.176 77.74 251.156 77.701 251.136 77.668L251.146 77.69C248.256 72.994 249.72 66.821 254.41 63.927C255.989 62.949 257.803 62.435 259.652 62.435C263.149 62.435 266.333 64.211 268.17 67.184L268.19 67.213L268.223 67.273L268.355 67.498C271.563 72.867 274.258 78.514 276.065 83.617C276.193 82.639 276.321 81.66 276.44 80.644C278.155 65.256 268.953 55.772 260.326 54.043C251.7 52.314 243.211 61.476 241.548 71.698C240.51 75.785 239.407 80.437 238.132 85.331C243.375 88.078 247.999 90.201 251.904 91.645C254.69 92.689 256.758 93.228 258.181 93.508Z" />
    <path d="M221.692 87.731C219.553 91.596 220.953 96.468 224.818 98.607C225.451 98.957 226.059 99.285 226.675 99.619C228.812 100.779 230.854 101.849 232.8 102.826C237.601 105.237 241.856 107.119 245.653 108.526C251.449 110.652 256.188 111.777 260.664 111.8C262.866 111.8 265.038 111.503 267.141 110.736C268.17 110.379 269.162 109.863 270.089 109.25C272.013 107.979 273.647 106.245 274.644 104.34C276.165 101.522 276.555 98.693 276.565 96.157C276.552 93.353 276.078 90.737 275.408 88.226C275.22 87.522 275.019 86.825 274.806 86.135C271.845 76.834 266.62 68.535 266.468 68.236C264.148 64.476 259.219 63.308 255.459 65.629C251.696 67.949 250.531 72.877 252.851 76.64V76.637C252.851 76.637 252.859 76.654 252.912 76.74C253.299 77.374 255.368 80.872 257.239 85.018C258.177 87.087 259.061 89.315 259.665 91.335C260.215 93.126 260.51 94.769 260.559 95.802C259.005 95.799 255.799 95.239 251.209 93.52C247.57 92.176 243.043 90.144 237.605 87.314C236.11 86.536 234.547 85.699 232.913 84.796C232.796 84.732 232.686 84.674 232.569 84.608C228.703 82.469 223.835 83.865 221.692 87.731Z" />
</svg>
